name Walk1.mot
datacolumns 19
datarows 15
range 2.38700000 2.40100000
endheader

                time	   L_ground_force_vx	   L_ground_force_vy	   L_ground_force_vz	   L_ground_force_px	   L_ground_force_py	   L_ground_force_pz	   R_ground_force_vx	   R_ground_force_vy	   R_ground_force_vz	   R_ground_force_px	   R_ground_force_py	   R_ground_force_pz	   L_ground_torque_x	   L_ground_torque_y	   L_ground_torque_z	   R_ground_torque_x	   R_ground_torque_y	   R_ground_torque_z	
          2.38700000	          0.00000000	          0.00000000	          0.00000000	          0.00000000	          0.00000000	          0.00000000	         20.84559803	         82.77255388	          1.66119709	          0.47338349	          0.00000000	          0.06691261	          0.00000000	         -0.00000000	          0.00000000	          0.00000000	         -0.08810641	          0.00000000	
          2.38800000	          0.00000000	          0.00000000	          0.00000000	          0.00000000	          0.00000000	          0.00000000	         19.71175090	         78.57086387	          1.58077720	          0.46651997	          0.00000000	          0.06589094	          0.00000000	         -0.00000000	          0.00000000	          0.00000000	         -0.08179714	          0.00000000	
          2.38900000	          0.00000000	          0.00000000	          0.00000000	          0.00000000	          0.00000000	          0.00000000	         18.60715906	         74.47908434	          1.49870323	          0.45928955	          0.00000000	          0.06481650	          0.00000000	         -0.00000000	          0.00000000	          0.00000000	         -0.07582560	          0.00000000	
          2.39000000	          0.00000000	          0.00000000	          0.00000000	          0.00000000	          0.00000000	          0.00000000	         17.53249933	         70.49761229	          1.41550535	          0.45169055	          0.00000000	          0.06368926	          0.00000000	         -0.00000000	          0.00000000	          0.00000000	         -0.07017634	          0.00000000	
          2.39100000	          0.00000000	          0.00000000	          0.00000000	          0.00000000	          0.00000000	          0.00000000	         16.48836621	         66.62676603	          1.33169696	          0.44372268	          0.00000000	          0.06250945	          0.00000000	         -0.00000000	          0.00000000	          0.00000000	         -0.06483416	          0.00000000	
          2.39200000	          0.00000000	          0.00000000	          0.00000000	          0.00000000	          0.00000000	          0.00000000	         15.47527431	         62.86678585	          1.24777196	          0.43538714	          0.00000000	          0.06127754	          0.00000000	         -0.00000000	          0.00000000	          0.00000000	         -0.05978416	          0.00000000	
          2.39300000	          0.00000000	          0.00000000	          0.00000000	          0.00000000	          0.00000000	          0.00000000	         14.49366072	         59.21783455	          1.16420244	          0.42668686	          0.00000000	          0.05999428	          0.00000000	         -0.00000000	          0.00000000	          0.00000000	         -0.05501166	          0.00000000	
          2.39400000	          0.00000000	          0.00000000	          0.00000000	          0.00000000	          0.00000000	          0.00000000	         13.54388729	         55.67999832	          1.08143653	          0.41762658	          0.00000000	          0.05866072	          0.00000000	         -0.00000000	          0.00000000	          0.00000000	         -0.05050228	          0.00000000	
          2.39500000	          0.00000000	          0.00000000	          0.00000000	          0.00000000	          0.00000000	          0.00000000	         12.62624263	         52.25328886	          0.99989620	          0.40821309	          0.00000000	          0.05727821	          0.00000000	         -0.00000000	          0.00000000	          0.00000000	         -0.04624201	          0.00000000	
          2.39600000	          0.00000000	          0.00000000	         -0.00000000	          0.00000000	          0.00000000	          0.00000000	         11.74094389	         48.93764680	          0.91997477	          0.39845538	          0.00000000	          0.05584844	          0.00000000	         -0.00000000	          0.00000000	          0.00000000	         -0.04221736	          0.00000000	
          2.39700000	          0.00000000	          0.00000000	         -0.00000000	          0.00000000	          0.00000000	          0.00000000	         10.88813855	         45.73294644	          0.84203411	          0.38836482	          0.00000000	          0.05437342	          0.00000000	         -0.00000000	          0.00000000	          0.00000000	         -0.03841555	          0.00000000	
          2.39800000	          0.00000000	          0.00000000	         -0.00000000	          0.00000000	          0.00000000	          0.00000000	         10.06790607	         42.63900150	          0.76640127	          0.37795535	          0.00000000	          0.05285557	          0.00000000	         -0.00000000	          0.00000000	          0.00000000	         -0.03482469	          0.00000000	
          2.39900000	          0.00000000	          0.00000000	         -0.00000000	          0.00000000	          0.00000000	          0.00000000	          9.28025942	         39.65557131	          0.69336502	          0.36724362	          0.00000000	          0.05129765	          0.00000000	         -0.00000000	          0.00000000	          0.00000000	         -0.03143381	          0.00000000	
          2.40000000	          0.00000000	          0.00000000	         -0.00000000	          0.00000000	          0.00000000	          0.00000000	          8.52514638	         36.78236637	          0.62317236	          0.35624916	          0.00000000	          0.04970287	          0.00000000	         -0.00000000	          0.00000000	          0.00000000	         -0.02823286	          0.00000000	
          2.40100000	          0.00000000	          0.00000000	         -0.00000000	          0.00000000	          0.00000000	          0.00000000	          7.80245052	         34.01905191	          0.55602524	          0.34499457	          0.00000000	          0.04807480	          0.00000000	         -0.00000000	          0.00000000	          0.00000000	         -0.02521265	          0.00000000	
